<?xml version="1.0" encoding="UTF-8" standalone="no" ?>
<!DOCTYPE svg PUBLIC "-//W3C//DTD SVG 1.1//EN" "http://www.w3.org/Graphics/SVG/1.1/DTD/svg11.dtd">
<svg xmlns="http://www.w3.org/2000/svg" xmlns:xlink="http://www.w3.org/1999/xlink" version="1.1" width="1080" height="1080" viewBox="0 0 1080 1080" xml:space="preserve">
<desc>Created with Fabric.js 5.2.4</desc>
<defs>
</defs>
<rect x="0" y="0" width="100%" height="100%" fill="transparent"></rect>
<g transform="matrix(1 0 0 1 540 540)" id="e9ca4fbd-8704-4bed-9622-e77476be8201"  >
<rect style="stroke: none; stroke-width: 1; stroke-dasharray: none; stroke-linecap: butt; stroke-dashoffset: 0; stroke-linejoin: miter; stroke-miterlimit: 4; fill: rgb(255,255,255); fill-rule: nonzero; opacity: 1; visibility: hidden;" vector-effect="non-scaling-stroke"  x="-540" y="-540" rx="0" ry="0" width="1080" height="1080" />
</g>
<g transform="matrix(1 0 0 1 540 540)" id="ef89494e-7abe-4d16-ba6c-a7b60d4fef62"  >
</g>
<g transform="matrix(68.1 0 0 68.1 532.92 532.92)" id="7bbb020a-120b-4c6a-bb79-8c53712380ad"  >
<path style="stroke: rgb(0,0,0); stroke-width: 0; stroke-dasharray: none; stroke-linecap: butt; stroke-dashoffset: 0; stroke-linejoin: miter; stroke-miterlimit: 4; fill: rgb(255,255,255); fill-rule: nonzero; opacity: 1;" vector-effect="non-scaling-stroke"  transform=" translate(-8, -8)" d="M 12.7 1 C 12.313400675118444 1.0000000000000004 12 1.3134006751184448 12 1.7 L 12 6.8500000000000005 L 2.05 1.107 C 1.8336075615923328 0.9820652637848063 1.5670279570385297 0.9819490314442639 1.3505266544321657 1.1066950200888834 C 1.1340253518258017 1.231441008733503 1.0004344758958021 1.462131660781379 1 1.7120000000000002 L 1 14.286999999999999 C 0.9997202941011786 14.53722562685764 1.1330290467356607 14.768570756545353 1.3496610164978704 14.893804666684078 C 1.5662929862600803 15.019038576822803 1.8332982053349913 15.019113047923282 2.05 14.893999999999998 L 12 9.149 L 12 14.3 C 12 14.686599324881556 12.313400675118444 15 12.7 15 L 14.299999999999999 15 C 14.686599324881554 15 14.999999999999998 14.686599324881556 14.999999999999998 14.3 L 14.999999999999998 1.7 C 14.999999999999998 1.3134006751184448 14.686599324881554 1.0000000000000004 14.299999999999999 1 L 12.7 1 z" stroke-linecap="round" />
</g>
</svg>