<?xml version="1.0" encoding="UTF-8" standalone="no" ?>
<!DOCTYPE svg PUBLIC "-//W3C//DTD SVG 1.1//EN" "http://www.w3.org/Graphics/SVG/1.1/DTD/svg11.dtd">
<svg xmlns="http://www.w3.org/2000/svg" xmlns:xlink="http://www.w3.org/1999/xlink" version="1.1" width="1080" height="1080" viewBox="0 0 1080 1080" xml:space="preserve">
<desc>Created with Fabric.js 5.2.4</desc>
<defs>
</defs>
<rect x="0" y="0" width="100%" height="100%" fill="transparent"></rect>
<g transform="matrix(1 0 0 1 540 540)" id="e9ca4fbd-8704-4bed-9622-e77476be8201"  >
<rect style="stroke: none; stroke-width: 1; stroke-dasharray: none; stroke-linecap: butt; stroke-dashoffset: 0; stroke-linejoin: miter; stroke-miterlimit: 4; fill: rgb(255,255,255); fill-rule: nonzero; opacity: 1; visibility: hidden;" vector-effect="non-scaling-stroke"  x="-540" y="-540" rx="0" ry="0" width="1080" height="1080" />
</g>
<g transform="matrix(1 0 0 1 540 540)" id="ef89494e-7abe-4d16-ba6c-a7b60d4fef62"  >
</g>
<g transform="matrix(62.23 0 0 62.23 538.39 538.51)" id="02a622a2-18a5-4dd9-bf97-873481f8d366"  >
<path style="stroke: rgb(0,0,0); stroke-width: 0; stroke-dasharray: none; stroke-linecap: butt; stroke-dashoffset: 0; stroke-linejoin: miter; stroke-miterlimit: 4; fill: rgb(255,255,255); fill-rule: nonzero; opacity: 1;" vector-effect="non-scaling-stroke"  transform=" translate(-8, -8.41)" d="M 0 4.75 C 0 2.6789321881345245 1.6789321881345245 1 3.75 1 L 12.25 1 C 14.321067811865476 1 16 2.6789321881345236 16 4.749999999999999 L 16 9.75 C 16 11.821067811865476 14.321067811865476 13.5 12.25 13.5 L 9.81 13.5 L 10.828000000000001 14.518 C 11.028653177612041 14.704970580463987 11.111249181507514 14.986555542158953 11.043385541874256 15.252288908638542 C 10.975521902240999 15.518022275118133 10.768022275118133 15.725521902240999 10.502288908638542 15.793385541874256 C 10.236555542158953 15.861249181507514 9.954970580463986 15.77865317761204 9.768 15.578000000000001 L 6.939 12.75 L 9.768 9.922 C 9.954970580463986 9.72134682238796 10.236555542158953 9.638750818492488 10.502288908638542 9.706614458125745 C 10.768022275118131 9.774478097759003 10.975521902240999 9.981977724881869 11.043385541874256 10.247711091361458 C 11.111249181507514 10.513444457841048 11.028653177612041 10.795029419536014 10.828000000000001 10.982000000000001 L 9.811 12 L 12.25 12 C 13.492640687119286 12 14.5 10.992640687119286 14.5 9.75 L 14.5 4.75 C 14.5 3.507359312880715 13.492640687119286 2.5 12.25 2.5 L 3.75 2.5 C 2.507359312880715 2.5 1.5 3.507359312880715 1.5 4.75 L 1.5 9.75 C 1.5 10.992640687119286 2.507359312880715 12 3.75 12 L 5 12 L 5 13.5 L 3.75 13.5 C 1.6789321881345245 13.5 0 11.821067811865476 0 9.75 L 0 4.75 z" stroke-linecap="round" />
</g>
</svg>