<?xml version="1.0" encoding="UTF-8" standalone="no" ?>
<!DOCTYPE svg PUBLIC "-//W3C//DTD SVG 1.1//EN" "http://www.w3.org/Graphics/SVG/1.1/DTD/svg11.dtd">
<svg xmlns="http://www.w3.org/2000/svg" xmlns:xlink="http://www.w3.org/1999/xlink" version="1.1" width="1080" height="1080" viewBox="0 0 1080 1080" xml:space="preserve">
<desc>Created with Fabric.js 5.2.4</desc>
<defs>
</defs>
<rect x="0" y="0" width="100%" height="100%" fill="transparent"></rect>
<g transform="matrix(1 0 0 1 540 540)" id="e9ca4fbd-8704-4bed-9622-e77476be8201"  >
<rect style="stroke: none; stroke-width: 1; stroke-dasharray: none; stroke-linecap: butt; stroke-dashoffset: 0; stroke-linejoin: miter; stroke-miterlimit: 4; fill: rgb(255,255,255); fill-rule: nonzero; opacity: 1; visibility: hidden;" vector-effect="non-scaling-stroke"  x="-540" y="-540" rx="0" ry="0" width="1080" height="1080" />
</g>
<g transform="matrix(1 0 0 1 540 540)" id="ef89494e-7abe-4d16-ba6c-a7b60d4fef62"  >
</g>
<g transform="matrix(61.09 0 0 61.09 540 540)"  >
<g style="" vector-effect="non-scaling-stroke"   >
		<g transform="matrix(1 0 0 1 0 -0.66)"  >
<path style="stroke: none; stroke-width: 1; stroke-dasharray: none; stroke-linecap: butt; stroke-dashoffset: 0; stroke-linejoin: miter; stroke-miterlimit: 4; fill: rgb(255,255,255); fill-rule: nonzero; opacity: 1;" vector-effect="non-scaling-stroke"  transform=" translate(-7.99, -7.34)" d="M 13.151 0.922 C 12.964029419536015 0.7213468223879586 12.682444457841047 0.6387508184924839 12.416711091361456 0.7066144581257412 C 12.150977724881866 0.7744780977589985 11.943478097758998 0.9819777248818655 11.87561445812574 1.2477110913614562 C 11.807750818492483 1.5134444578410469 11.890346822387958 1.7950294195360148 12.091 1.9820000000000002 L 13.109 3 L 11.16 3 C 10.051336143286376 3.000013943474834 8.999501305216622 3.490601720367793 8.286999999999997 4.340000000000002 L 2.113999999999999 11.696 C 1.6864542669551543 12.205692558007003 1.055268257889513 12.500050766411166 0.3899999999999997 12.5 L 0 12.5 L 0 14 L 0.391 14 C 1.4996638567136242 13.999986056525167 2.551498694783376 13.509398279632208 3.2640000000000002 12.66 L 9.437000000000001 5.304 C 9.864545733044846 4.794307441992997 10.495731742110486 4.4999492335888345 11.161 4.5 L 13.108 4.5 L 12.091000000000001 5.518 C 11.815641139570884 5.813509754484482 11.823766124082654 6.274009721994737 12.10937820104396 6.559621798956043 C 12.394990278005263 6.845233875917346 12.85549024551552 6.8533588604291165 13.151000000000002 6.577999999999999 L 15.98 3.75 L 13.15 0.922 z M 0.391 3.5 L 0 3.5 L 0 2 L 0.391 2 C 1.5 2 2.551 2.49 3.2640000000000002 3.34 L 4.89 5.277 L 3.9109999999999996 6.444 L 2.1149999999999993 4.304 C 1.6872295616361246 3.7940393834603854 1.0556179521790783 3.4996534507047534 0.38999999999999857 3.5 z" stroke-linecap="round" />
</g>
		<g transform="matrix(1 0 0 1 3.75 4.25)"  >
<path style="stroke: none; stroke-width: 1; stroke-dasharray: none; stroke-linecap: butt; stroke-dashoffset: 0; stroke-linejoin: miter; stroke-miterlimit: 4; fill: rgb(255,255,255); fill-rule: nonzero; opacity: 1;" vector-effect="non-scaling-stroke"  transform=" translate(-11.74, -12.25)" d="M 7.5 10.723 L 8.48 9.556000000000001 L 9.437000000000001 10.696000000000002 C 9.864545733044846 11.205692558007005 10.49573174211049 11.500050766411167 11.161000000000003 11.500000000000002 L 13.108 11.500000000000002 L 12.091000000000001 10.482000000000001 C 11.890346822387961 10.295029419536014 11.807750818492488 10.013444457841048 11.875614458125746 9.74771109136146 C 11.943478097759003 9.481977724881869 12.15097772488187 9.274478097759003 12.41671109136146 9.206614458125745 C 12.682444457841049 9.138750818492488 12.964029419536017 9.22134682238796 13.151000000000002 9.422 L 15.980000000000002 12.25 L 13.151000000000002 15.078 C 12.964029419536015 15.27865317761204 12.682444457841049 15.361249181507512 12.41671109136146 15.293385541874255 C 12.15097772488187 15.225521902240997 11.943478097759003 15.018022275118131 11.875614458125746 14.752288908638542 C 11.807750818492488 14.486555542158952 11.890346822387961 14.204970580463986 12.091000000000001 14.017999999999999 L 13.109 13 L 11.16 13 C 10.051336143286376 12.999986056525167 8.999501305216622 12.509398279632208 8.286999999999999 11.66 L 7.499999999999999 10.722 z" stroke-linecap="round" />
</g>
</g>
</g>
</svg>